<?xml version="1.0" standalone="no"?>
<!DOCTYPE svg PUBLIC "-//W3C//DTD SVG 20010904//EN"
 "http://www.w3.org/TR/2001/REC-SVG-20010904/DTD/svg10.dtd">
<svg version="1.0" xmlns="http://www.w3.org/2000/svg"
 width="500.000000pt" height="500.000000pt" viewBox="0 0 500.000000 500.000000"
 preserveAspectRatio="xMidYMid meet">
<metadata>
Created by potrace 1.14, written by Peter Selinger 2001-2017
</metadata>
<g transform="translate(0.000000,500.000000) scale(0.100000,-0.100000)"
fill="#FFF" stroke="none">
<path d="M2232 4530 c-43 -10 -78 -44 -93 -87 -17 -52 -2 -261 20 -272 9 -5
71 -23 137 -41 l122 -33 5 -55 c8 -72 -2 -89 -55 -94 -53 -6 -78 6 -78 37 0
49 -8 55 -76 55 l-64 0 0 -57 c1 -137 59 -181 222 -168 171 13 188 33 188 223
0 109 -3 133 -17 150 -11 12 -57 30 -122 47 -160 41 -151 36 -151 99 0 64 13
76 78 76 46 0 59 -12 64 -60 3 -34 5 -35 47 -38 25 -2 55 -1 69 3 24 6 24 8
18 72 -13 125 -48 154 -188 152 -51 -1 -108 -5 -126 -9z"/>
<path d="M2860 4502 c-49 -25 -66 -62 -85 -190 -13 -90 -14 -116 -4 -128 7 -8
65 -40 130 -71 l118 -55 -6 -52 c-8 -75 -17 -86 -64 -86 -63 0 -79 13 -79 65
0 43 -1 44 -37 50 -21 3 -48 8 -60 11 -31 6 -43 -22 -43 -99 0 -108 40 -140
197 -158 163 -19 191 4 219 179 26 165 30 157 -114 227 l-124 60 5 52 c3 29 8
57 12 63 9 14 75 12 105 -3 22 -11 25 -19 22 -55 -4 -46 2 -50 88 -54 l45 -3
9 65 c16 122 -25 167 -177 189 -103 15 -116 14 -157 -7z"/>
<path d="M3505 4507 c-3 -7 -61 -182 -129 -389 -87 -266 -120 -380 -112 -386
18 -14 108 -42 117 -37 4 3 31 77 59 165 l50 159 87 -30 c48 -16 94 -29 103
-29 11 0 22 18 34 55 9 30 15 59 12 63 -2 4 -45 21 -95 37 -50 16 -91 34 -91
39 0 17 52 170 61 180 5 5 59 -7 129 -29 73 -24 124 -35 129 -29 15 16 41 108
34 115 -5 4 -80 30 -168 58 -88 29 -173 56 -188 61 -20 7 -29 6 -32 -3z"/>
<path d="M1663 4450 c-124 -28 -161 -54 -178 -121 -8 -32 98 -500 123 -543 10
-17 35 -40 56 -50 34 -17 46 -18 100 -8 105 20 168 43 198 72 24 24 28 36 28
82 -1 67 -100 497 -124 533 -18 27 -72 56 -103 54 -10 0 -55 -9 -100 -19z m96
-134 c6 -7 32 -102 57 -211 33 -145 42 -200 34 -210 -6 -7 -34 -19 -61 -25
-42 -10 -53 -10 -64 1 -17 18 -97 370 -93 406 3 24 10 30 48 40 60 15 66 15
79 -1z"/>
<path d="M1100 4271 c-59 -19 -270 -114 -270 -123 0 -12 270 -640 279 -651 4
-4 33 4 65 18 42 19 56 30 52 41 -3 8 -22 53 -42 100 -20 46 -35 86 -33 87 14
9 82 37 84 35 31 -44 127 -168 133 -171 10 -6 112 40 112 51 0 5 -31 50 -70
102 -56 74 -67 96 -60 111 19 35 9 82 -41 203 -60 142 -80 173 -125 192 -37
15 -47 16 -84 5z m44 -163 c8 -13 29 -56 46 -96 25 -58 29 -77 19 -88 -11 -13
-93 -54 -109 -54 -7 0 -102 211 -97 216 8 9 95 43 109 43 10 1 24 -9 32 -21z"/>
<path d="M3945 3870 c-85 -170 -155 -317 -155 -325 0 -14 87 -65 110 -65 10 0
320 620 320 639 0 6 -104 61 -115 61 -3 0 -75 -139 -160 -310z"/>
<path d="M440 4047 c-66 -36 -165 -109 -181 -134 -11 -16 -19 -46 -19 -70 0
-38 17 -68 169 -296 93 -139 181 -263 195 -275 61 -47 119 -34 242 53 111 79
120 136 39 256 l-46 70 -29 -18 c-17 -10 -42 -27 -56 -38 l-26 -21 31 -50 c18
-28 29 -57 26 -65 -8 -20 -74 -61 -93 -57 -15 3 -208 278 -279 396 -24 40 -24
44 -9 61 9 10 32 27 52 37 l35 19 22 -26 c12 -14 31 -39 43 -54 l20 -29 47 32
c25 18 49 37 52 42 7 11 -61 114 -98 149 -31 29 -101 38 -137 18z"/>
<path d="M4396 3963 c-20 -26 -36 -52 -36 -58 0 -5 23 -25 51 -43 35 -23 49
-38 45 -49 -4 -8 -76 -118 -161 -244 -85 -126 -155 -230 -155 -232 0 -11 113
-78 120 -70 4 4 78 113 164 241 86 127 159 232 162 232 3 0 24 -13 47 -28 23
-16 47 -32 54 -36 8 -4 26 13 49 49 20 30 35 57 33 59 -6 5 -313 212 -326 220
-8 4 -26 -11 -47 -41z"/>
<path d="M1545 3416 c-123 -31 -245 -130 -315 -255 -58 -103 -94 -156 -111
-159 -8 -1 -35 13 -60 33 -94 75 -93 23 2 -105 39 -52 99 -136 134 -185 126
-180 240 -257 392 -263 109 -5 170 14 284 90 99 66 171 98 218 98 l29 0 -21
53 c-19 47 -21 69 -19 227 2 167 -2 208 -33 295 -6 17 -3 16 16 -5 33 -38 76
-137 90 -210 7 -36 16 -69 21 -75 9 -10 6 9 -17 126 -35 176 -157 295 -343
335 -81 17 -199 17 -267 0z m302 -65 c99 -43 146 -122 179 -298 32 -171 1
-278 -112 -390 -73 -72 -201 -140 -280 -149 -140 -17 -345 119 -409 271 -26
63 -31 172 -10 236 61 188 189 315 352 348 83 17 221 8 280 -18z"/>
<path d="M1701 3106 c-35 -110 -55 -249 -46 -323 6 -47 9 -53 29 -53 26 0 49
43 82 155 25 83 25 251 1 289 -10 14 -22 26 -27 26 -5 0 -23 -42 -39 -94z"/>
<path d="M3284 3366 c-185 -60 -313 -191 -368 -375 -15 -52 -21 -100 -11 -90
2 3 15 41 28 86 16 55 38 100 71 147 26 36 49 66 52 66 2 0 -6 -21 -19 -47
-30 -60 -33 -74 -57 -244 -21 -147 -45 -222 -86 -260 -29 -27 -33 -55 -6 -44
39 16 94 25 120 19 15 -4 80 -33 145 -66 64 -32 145 -65 180 -73 145 -34 303
-9 387 62 59 50 66 58 160 189 44 61 111 148 150 192 39 45 67 82 64 82 -4 0
-31 -14 -61 -31 -67 -38 -94 -31 -113 28 -19 59 -74 156 -129 226 -109 139
-319 194 -507 133z m321 -74 c98 -51 181 -136 231 -236 36 -74 39 -86 39 -165
0 -73 -4 -94 -28 -143 -83 -169 -278 -261 -486 -229 -170 27 -263 93 -301 216
-58 189 -23 364 94 480 129 127 298 156 451 77z"/>
<path d="M3401 3159 c-11 -19 -28 -67 -37 -108 -28 -125 -4 -346 37 -346 33 0
79 148 79 255 0 66 -30 204 -49 223 -6 6 -17 -2 -30 -24z"/>
<path d="M697 2909 c-32 -306 -39 -448 -27 -524 21 -131 166 -461 244 -555 74
-89 214 -207 296 -249 87 -46 295 -130 419 -171 98 -32 337 -84 486 -106 221
-33 654 -27 911 11 51 8 152 21 224 30 145 17 194 33 375 123 145 72 231 130
332 225 79 75 243 279 275 342 52 101 78 286 78 552 0 74 7 193 16 264 11 91
13 134 5 142 -7 7 -12 1 -16 -19 -87 -386 -263 -775 -419 -922 -69 -66 -327
-235 -397 -261 -122 -46 -278 -74 -404 -74 -136 1 -297 29 -381 67 -59 27
-124 83 -155 133 l-22 35 31 24 c17 13 51 52 75 87 48 67 92 103 172 138 l50
23 -42 7 c-24 4 -62 19 -85 33 -60 35 -116 45 -178 34 -40 -7 -62 -6 -101 7
-59 20 -97 13 -215 -37 -72 -31 -86 -48 -39 -48 13 0 28 -6 32 -14 4 -7 24
-21 43 -31 59 -30 108 -79 138 -136 15 -30 35 -66 45 -80 17 -25 17 -27 -4
-53 -57 -73 -297 -136 -519 -136 -122 0 -316 25 -400 51 -137 43 -321 159
-436 274 -74 74 -176 211 -219 295 -64 123 -138 392 -158 570 l-12 113 -18
-164z m156 -474 c9 -20 17 -41 16 -48 -1 -18 -139 -131 -139 -113 0 19 89 196
99 196 4 0 15 -16 24 -35z m3364 -221 c-6 -6 -137 63 -137 71 0 3 12 30 27 61
l28 56 44 -91 c24 -50 41 -94 38 -97z m-3256 31 c30 -44 91 -117 137 -164 l83
-84 -46 -69 c-27 -41 -50 -66 -57 -62 -7 5 -9 38 -4 106 6 96 6 99 -14 88 -10
-6 -33 -30 -50 -55 -51 -74 -53 -71 -48 74 3 72 1 131 -4 131 -5 0 -28 -18
-52 -40 -24 -22 -48 -40 -55 -40 -23 0 -10 89 28 184 14 34 11 36 82 -69z
m3132 -47 c15 -24 23 -46 18 -51 -9 -9 -101 1 -101 10 0 10 44 83 50 83 3 0
18 -19 33 -42z m-57 -154 c3 -19 4 -37 1 -40 -3 -4 -31 6 -62 20 l-57 26 33
41 33 42 22 -27 c13 -14 26 -42 30 -62z m-120 -49 c18 -44 18 -84 -1 -91 -8
-4 -34 3 -57 15 -64 31 -65 30 -41 -131 3 -21 3 -38 0 -38 -2 0 -35 14 -72 31
-37 16 -69 29 -70 27 -2 -2 -8 -39 -14 -83 -9 -67 -46 -223 -55 -233 -2 -1
-22 27 -45 62 -42 66 -116 139 -135 133 -6 -1 -29 -39 -51 -84 -22 -45 -43
-82 -46 -82 -3 -1 -11 16 -17 37 -14 43 -48 102 -60 102 -5 0 -17 -30 -28 -67
-10 -36 -24 -68 -30 -70 -5 -2 -18 21 -28 51 -9 31 -21 58 -27 61 -5 4 -27
-32 -48 -78 -38 -82 -105 -172 -121 -162 -4 3 -14 29 -20 57 -7 29 -26 88 -41
131 -46 124 -56 115 139 113 166 -1 168 -1 302 38 74 21 164 53 200 70 73 37
207 122 290 185 30 22 56 41 58 41 2 0 10 -16 18 -35z m-2645 -51 c26 -19 99
-60 161 -91 98 -49 130 -59 243 -80 72 -13 202 -27 290 -32 158 -9 162 -9 320
24 88 18 168 36 178 40 15 6 17 1 17 -41 -1 -88 -27 -202 -57 -249 -15 -25
-31 -45 -35 -45 -14 0 -57 78 -89 161 -17 46 -35 88 -40 93 -14 16 -27 -4 -67
-101 -20 -49 -41 -91 -46 -94 -4 -2 -22 30 -38 71 -45 116 -51 117 -92 29 -20
-41 -41 -96 -48 -124 -6 -27 -15 -54 -20 -59 -15 -18 -77 172 -78 237 0 57
-25 24 -65 -88 -10 -27 -22 -54 -26 -59 -10 -11 -39 53 -39 86 0 13 -5 40 -11
61 -10 36 -12 38 -28 23 -10 -9 -35 -52 -55 -96 -39 -83 -56 -93 -56 -35 0 48
-20 134 -33 142 -6 3 -27 -13 -48 -37 -21 -24 -42 -41 -46 -37 -4 5 -9 39 -11
78 -3 56 -7 69 -21 69 -9 0 -49 -35 -90 -77 -66 -70 -74 -76 -86 -60 -14 19
-43 166 -52 264 -7 75 -1 78 68 27z m1310 -143 c65 -29 158 -61 237 -81 34 -9
42 -15 42 -34 0 -36 -27 -106 -57 -144 l-26 -35 -33 93 c-18 51 -35 94 -37 97
-2 2 -15 -24 -27 -58 -26 -70 -121 -182 -139 -164 -15 16 -42 355 -27 355 2 0
32 -13 67 -29z m-864 -303 c6 -19 15 -51 18 -71 l7 -36 -43 12 c-52 15 -58 31
-34 94 20 51 35 51 52 1z m359 0 c20 -39 44 -123 44 -157 0 -23 -2 -23 -57
-16 -32 4 -61 10 -65 13 -6 7 50 192 58 192 2 0 11 -15 20 -32z m213 -83 c17
-118 18 -115 -33 -115 -75 0 -78 4 -55 61 28 72 58 129 68 129 5 0 14 -34 20
-75z m-443 38 c4 -16 16 -41 27 -56 24 -34 19 -40 -25 -32 -60 11 -64 17 -44
69 20 53 33 58 42 19z m883 -37 c11 -30 21 -67 23 -82 3 -28 1 -29 -43 -32
l-45 -3 7 68 c5 37 8 76 8 86 2 36 30 15 50 -37z m140 20 c7 -8 15 -40 18 -70
l6 -56 -47 0 c-28 0 -46 4 -46 11 0 20 42 129 50 129 4 0 13 -6 19 -14z m215
-47 c8 -43 -3 -54 -61 -64 -33 -5 -43 -4 -43 7 0 19 81 111 90 101 4 -4 10
-24 14 -44z m134 16 c20 -43 15 -53 -28 -57 -22 -2 -40 -2 -40 0 0 10 44 82
50 82 4 0 12 -11 18 -25z m-769 -22 c22 -90 24 -83 -25 -83 -24 0 -44 4 -44 9
0 17 43 111 51 111 5 0 12 -17 18 -37z m119 -17 c17 -30 32 -57 32 -60 0 -3
-25 -6 -55 -6 -39 0 -55 4 -55 13 0 21 31 107 39 107 3 0 21 -24 39 -54z"/>
<path d="M1046 955 c-82 -206 -146 -381 -143 -388 5 -13 113 -55 120 -46 2 2
30 69 61 149 32 80 61 149 65 153 8 8 121 -31 121 -42 0 -4 -27 -74 -60 -156
-33 -82 -60 -152 -60 -156 0 -10 107 -52 121 -47 6 2 72 157 145 343 74 187
141 357 149 378 l15 38 -56 25 c-31 14 -62 23 -68 21 -6 -3 -38 -73 -70 -156
-33 -85 -64 -151 -72 -151 -11 0 -104 37 -111 44 -2 1 24 69 57 151 33 82 60
154 60 161 0 10 -97 54 -119 54 -4 0 -74 -169 -155 -375z"/>
<path d="M3804 1226 c-49 -23 -51 -26 -57 -71 -4 -26 -7 -94 -7 -151 0 -57 -1
-104 -3 -104 -2 0 -51 48 -109 106 -116 116 -106 112 -197 73 l-45 -20 175
-177 176 -177 43 -115 c23 -63 46 -119 50 -123 7 -7 107 26 122 41 4 4 -14 64
-41 132 l-48 125 7 160 c13 247 12 325 -2 324 -7 0 -36 -11 -64 -23z"/>
<path d="M1821 973 c-10 -21 -78 -168 -151 -328 -72 -159 -134 -293 -137 -298
-5 -9 30 -22 83 -31 l41 -7 31 65 c17 36 37 66 44 66 18 0 171 -30 175 -34 2
-2 7 -36 10 -75 6 -78 4 -75 87 -87 l49 -7 -6 84 c-4 46 -14 212 -23 369 -9
157 -18 287 -20 289 -4 4 -131 30 -151 31 -7 0 -21 -17 -32 -37z m78 -364 l1
-76 -60 10 c-33 5 -60 14 -60 19 0 6 24 64 53 131 l52 121 6 -64 c4 -36 7 -99
8 -141z"/>
<path d="M3020 989 c-143 -28 -140 -27 -140 -52 1 -33 125 -676 132 -682 6 -6
117 11 125 19 2 1 -6 50 -17 107 -13 68 -16 105 -9 109 5 4 40 12 76 19 83 15
119 34 143 74 25 40 25 67 0 197 -31 156 -38 176 -71 204 -38 32 -98 33 -239
5z m175 -221 c14 -72 16 -101 8 -109 -19 -19 -123 -40 -129 -26 -12 32 -41
213 -36 219 10 10 52 16 97 14 l40 -1 20 -97z"/>
<path d="M2312 583 l3 -358 68 -3 67 -3 0 111 0 110 83 0 c92 0 137 16 171 63
19 26 21 42 21 185 0 244 -9 252 -255 252 l-160 0 2 -357z m266 215 c8 -8 12
-47 12 -110 0 -97 -1 -99 -26 -108 -14 -6 -45 -10 -70 -10 l-44 0 0 120 0 120
58 0 c32 0 63 -5 70 -12z"/>
</g>
</svg>
